# xmcd
#
# Track frame offsets: 
#        150
#        16304
#        34234
#        56456
#        69977
#
# Disc length: 1081 seconds
#
# Revision: 0
# Processed by: cddbd v1.5.2PL0 Copyright (c) Steve Scherf et al.
# Submitted via: ExactAudioCopy v0.95a5
#
DISCID=38043705
DTITLE=Longwave - Longwave EP
DYEAR=2001
DGENRE=Independent
TTITLE0=Tidal Wave
TTITLE1=Exit
TTITLE2=Meet Me At The Bottom
TTITLE3=Next Plateau
TTITLE4=Ambien
EXTD=
EXTT0=
EXTT1=
EXTT2=
EXTT3=
EXTT4=
PLAYORDER=
